<mxfile modified="2022-05-01T02:24:12.619Z" host="app.diagrams.net" agent="5.0 (Windows NT 10.0; Win64; x64) AppleWebKit/537.36 (KHTML, like Gecko) Chrome/100.0.4896.127 Safari/537.36" etag="6Ugbl5bX0GKAkEspfQki" version="17.5.0" type="github">
  <diagram id="l8hXMBHkgcEJcSW0mbfh" name="Page-1">
    <mxGraphModel dx="1038" dy="547" grid="1" gridSize="10" guides="1" tooltips="1" connect="1" arrows="1" fold="1" page="1" pageScale="1" pageWidth="1169" pageHeight="827" math="0" shadow="0">
      <root>
        <mxCell id="0" />
        <mxCell id="1" parent="0" />
        <mxCell id="9ZJ48KXjJRt2zyMgK82v-1" value="" style="aspect=fixed;perimeter=ellipsePerimeter;html=1;align=center;shadow=0;dashed=0;spacingTop=3;image;image=img/lib/active_directory/internet_cloud.svg;" vertex="1" parent="1">
          <mxGeometry x="310" y="40" width="238.1" height="150" as="geometry" />
        </mxCell>
        <mxCell id="9ZJ48KXjJRt2zyMgK82v-2" value="" style="outlineConnect=0;dashed=0;verticalLabelPosition=bottom;verticalAlign=top;align=center;html=1;shape=mxgraph.aws3.internet_2;fillColor=#D2D3D3;gradientColor=none;" vertex="1" parent="1">
          <mxGeometry x="560" y="100" width="79.5" height="54" as="geometry" />
        </mxCell>
        <mxCell id="9ZJ48KXjJRt2zyMgK82v-4" value="" style="shape=image;html=1;verticalAlign=top;verticalLabelPosition=bottom;labelBackgroundColor=#ffffff;imageAspect=0;aspect=fixed;image=https://cdn1.iconfinder.com/data/icons/computer-hardware-cute-style-vol-1/52/device__wifi__signal__wireless__connection__internet__router-128.png" vertex="1" parent="1">
          <mxGeometry x="554.75" y="210" width="90" height="90" as="geometry" />
        </mxCell>
        <mxCell id="9ZJ48KXjJRt2zyMgK82v-5" value="" style="sketch=0;aspect=fixed;pointerEvents=1;shadow=0;dashed=0;html=1;strokeColor=none;labelPosition=center;verticalLabelPosition=bottom;verticalAlign=top;align=center;fillColor=#66B2FF;shape=mxgraph.mscae.enterprise.firewall" vertex="1" parent="1">
          <mxGeometry x="571.34" y="330" width="56.82" height="50" as="geometry" />
        </mxCell>
        <mxCell id="9ZJ48KXjJRt2zyMgK82v-9" value="" style="sketch=0;aspect=fixed;pointerEvents=1;shadow=0;dashed=0;html=1;strokeColor=none;labelPosition=center;verticalLabelPosition=bottom;verticalAlign=top;align=center;fillColor=#66B2FF;shape=mxgraph.mscae.enterprise.firewall" vertex="1" parent="1">
          <mxGeometry x="574.52" y="490" width="56.82" height="50" as="geometry" />
        </mxCell>
        <mxCell id="9ZJ48KXjJRt2zyMgK82v-10" value="" style="image;html=1;image=img/lib/clip_art/networking/Switch_128x128.png;fillColor=#66B2FF;" vertex="1" parent="1">
          <mxGeometry x="571.34" y="400" width="60" height="70" as="geometry" />
        </mxCell>
        <mxCell id="9ZJ48KXjJRt2zyMgK82v-11" value="" style="image;html=1;image=img/lib/clip_art/computers/Server_Rack_128x128.png;fillColor=#66B2FF;" vertex="1" parent="1">
          <mxGeometry x="380" y="270" width="80" height="80" as="geometry" />
        </mxCell>
        <mxCell id="9ZJ48KXjJRt2zyMgK82v-13" value="" style="image;html=1;image=img/lib/clip_art/computers/Server_Rack_128x128.png;fillColor=#66B2FF;" vertex="1" parent="1">
          <mxGeometry x="380" y="374" width="80" height="80" as="geometry" />
        </mxCell>
        <mxCell id="9ZJ48KXjJRt2zyMgK82v-14" value="" style="image;html=1;image=img/lib/clip_art/networking/Switch_128x128.png;fillColor=#66B2FF;" vertex="1" parent="1">
          <mxGeometry x="572.9300000000001" y="550" width="60" height="70" as="geometry" />
        </mxCell>
      </root>
    </mxGraphModel>
  </diagram>
</mxfile>
